<?xml version="1.0" encoding="UTF-8"?>
<svg version="1.1" xmlns="http://www.w3.org/2000/svg" width="1600" height="1600">
<path d="M0 0 C1.49499542 -0.00702005 2.98999054 -0.01410688 4.48498535 -0.02125549 C9.23608836 -0.04066011 13.98714262 -0.04568939 18.73828125 -0.046875 C19.54722965 -0.04731686 20.35617805 -0.04775871 21.18964005 -0.04821396 C44.22790389 -0.05481677 67.12303509 0.03296266 90.01306152 2.94665527 C92.19794757 3.22164752 94.38429935 3.48154968 96.57128906 3.73925781 C174.87859035 13.03263161 249.75136926 36.24743655 354.05078125 91.203125 C355.69748368 92.1908264 357.3446044 93.17783085 358.9921875 94.1640625 C386.52162908 110.72409365 412.31225403 129.73637294 437.05078125 150.203125 C437.62812012 150.67991699 438.20545898 151.15670898 438.80029297 151.64794922 C446.60139582 158.11003993 454.09907974 164.84983169 461.49951172 171.76513672 C463.86671475 173.95947506 466.27643174 176.10654415 468.67578125 178.265625 C474.21087511 183.33515022 479.54774764 188.59192885 484.86328125 193.890625 C485.6639502 194.68670166 486.46461914 195.48277832 487.28955078 196.30297852 C491.50411388 200.52851932 495.55666713 204.83231385 499.44897461 209.35620117 C501.86781884 212.14519014 504.40071308 214.82321001 506.92578125 217.515625 C512.22452591 223.21797372 517.17976161 229.13026881 522.05078125 235.203125 C523.03354775 236.39585842 524.01803056 237.58717901 525.00390625 238.77734375 C533.41961934 248.96784295 541.34065471 259.47045917 549.05078125 270.203125 C549.64036621 271.02361328 550.22995117 271.84410156 550.83740234 272.68945312 C595.84844464 335.58934179 629.14223375 406.48870191 649.05078125 481.203125 C649.22331421 481.84965027 649.39584717 482.49617554 649.5736084 483.16229248 C657.1878514 511.83964619 662.75577859 541.00170987 666.36328125 570.453125 C666.51055664 571.65001953 666.65783203 572.84691406 666.80957031 574.08007812 C667.2722109 578.11707771 667.67560668 582.15728169 668.05078125 586.203125 C668.13691681 587.11031281 668.22305237 588.01750061 668.3117981 588.95217896 C670.07585854 608.07358117 670.41401469 627.10105004 670.36863708 646.28540802 C670.36320133 648.6757676 670.36083107 651.06611728 670.35876465 653.45648193 C670.32816037 676.16754 669.87959882 698.64202178 667.05078125 721.203125 C666.75777685 723.74608964 666.46480834 726.28905842 666.171875 728.83203125 C656.573308 808.58935484 632.07622825 887.88159353 593.05078125 958.203125 C592.48020996 959.2334082 591.90963867 960.26369141 591.32177734 961.32519531 C578.68310508 984.03484897 565.19059816 1006.13757383 549.67041016 1027.01416016 C547.97232661 1029.30915821 546.29701609 1031.61954611 544.625 1033.93359375 C536.82129582 1044.69743627 528.63343453 1055.05151838 520.05078125 1065.203125 C519.52742188 1065.82558105 519.0040625 1066.44803711 518.46484375 1067.08935547 C511.7002958 1075.12654838 504.71331271 1082.92340688 497.54199219 1090.59863281 C496.0583903 1092.19493792 494.58785992 1093.80228538 493.12109375 1095.4140625 C483.95981754 1105.46559562 474.62277386 1115.5152244 464.2265625 1124.30859375 C461.78490183 1126.4346358 459.43031326 1128.6403066 457.07104492 1130.85693359 C451.55316556 1136.03890369 445.97697822 1141.04966743 440.0625 1145.78125 C437.77180226 1147.62331563 435.50901863 1149.48570439 433.2578125 1151.375 C422.83421052 1160.1030261 412.08084055 1168.25922069 401.05078125 1176.203125 C400.36081055 1176.70521484 399.67083984 1177.20730469 398.95996094 1177.72460938 C352.06204312 1211.8446098 299.59503179 1239.47511879 245.05078125 1259.203125 C244.07592773 1259.56438477 243.10107422 1259.92564453 242.09667969 1260.29785156 C226.60280995 1266.0160138 214.94363558 1268.7688988 199.05078125 1262.203125 C185.29697489 1255.14383905 176.63810278 1242.9538644 171.7500217 1228.60385484 C169.14203438 1220.17750725 169.35354788 1211.72895329 169.40722656 1202.98754883 C169.4003937 1201.10287598 169.39136199 1199.21821005 169.38032532 1197.33355713 C169.35659129 1192.25147254 169.36300007 1187.1698302 169.37481403 1182.08772111 C169.38172764 1176.71937194 169.35946602 1171.35114183 169.340271 1165.98283386 C169.30803353 1155.79451553 169.30015163 1145.60633862 169.30184531 1135.41797513 C169.30329804 1120.58843451 169.26936977 1105.75896881 169.23411179 1090.92947674 C169.22888189 1088.71077158 169.22365952 1086.4920664 169.21844482 1084.27336121 C169.21583987 1083.18646883 169.21323492 1082.09957646 169.21055102 1080.97974795 C169.19618148 1074.64184472 169.18911895 1068.3039891 169.18865752 1061.96607012 C169.18638387 1043.02283688 169.12564308 1024.08856373 168.62011719 1005.15112305 C168.6017759 1004.42345596 168.58343461 1003.69578887 168.56453753 1002.94607127 C168.00709896 981.53446543 166.49802598 960.13812313 155.96875 941.0234375 C155.05078125 939.203125 155.05078125 939.203125 155.05078125 937.203125 C156.26133179 936.94789063 156.26133179 936.94789063 157.49633789 936.6875 C215.9704101 924.29302398 273.72440979 907.85027471 325.05078125 876.203125 C325.68757813 875.8117334 326.324375 875.4203418 326.98046875 875.01708984 C346.84758837 862.72064212 366.67960057 848.46631 382.75 831.3984375 C384.05078125 830.203125 384.05078125 830.203125 386.05078125 830.203125 C386.05078125 829.543125 386.05078125 828.883125 386.05078125 828.203125 C387.67746939 826.47476885 389.33269058 824.83781321 391.05078125 823.203125 C437.83883879 778.44933084 465.80461621 708.49988726 468.1585083 644.26330566 C468.21428179 641.1413928 468.24115186 638.02082202 468.25390625 634.8984375 C468.26092056 633.74904694 468.26793488 632.59965637 468.27516174 631.41543579 C468.29259613 627.71962536 468.29901539 624.02397506 468.30078125 620.328125 C468.30145599 619.06713989 468.30213074 617.80615479 468.30282593 616.50695801 C468.28723582 598.20154946 467.92284726 580.31255197 465.05078125 562.203125 C464.8791748 561.06246582 464.70756836 559.92180664 464.53076172 558.74658203 C455.31468898 498.51678765 430.47727363 436.37226382 386.05078125 393.203125 C387.09449529 390.527062 388.18972753 387.89874708 389.3828125 385.28515625 C398.79193572 364.50564138 403.42995388 340.96679533 404.05078125 318.203125 C404.0765625 317.43484375 404.10234375 316.6665625 404.12890625 315.875 C405.22981107 279.10477895 399.71992109 235.14010745 375.78515625 205.38671875 C374.05078125 203.203125 374.05078125 203.203125 374.05078125 201.203125 C306.39521749 202.34167794 243.49980992 228.1035849 194.05078125 274.203125 C193.33792969 274.94949219 192.62507812 275.69585937 191.890625 276.46484375 C190.05078125 278.203125 190.05078125 278.203125 188.05078125 278.203125 C187.80328125 278.780625 187.55578125 279.358125 187.30078125 279.953125 C185.78611342 282.6795271 184.58673373 284.35256508 182.05078125 286.203125 C175.90381488 285.79978075 170.21976786 283.8243381 164.36328125 282.015625 C117.93900582 268.1424867 69.07325353 263.96622081 20.80078125 264.015625 C19.15520233 264.01653137 19.15520233 264.01653137 17.47637939 264.01745605 C-11.26842665 264.06026447 -39.50323988 266.12504261 -67.94921875 270.203125 C-68.97917969 270.34975586 -70.00914062 270.49638672 -71.0703125 270.64746094 C-92.43774818 273.78589366 -115.16020593 278.33075751 -135.18115234 286.65185547 C-139.38350092 288.33716635 -139.38350092 288.33716635 -142.04296875 287.70703125 C-144.73895241 285.58007693 -146.95225587 283.09430673 -149.19921875 280.515625 C-153.52647778 275.68991586 -157.92810464 271.31581386 -162.94921875 267.203125 C-164.05381608 266.26352689 -165.15793652 265.32336801 -166.26171875 264.3828125 C-207.75600715 229.43005263 -258.14653087 208.17225088 -311.94921875 202.203125 C-313.51905518 202.00275635 -313.51905518 202.00275635 -315.12060547 201.79833984 C-325.78009101 200.25569827 -325.78009101 200.25569827 -335.70898438 203.37060547 C-339.67593368 207.28224387 -341.73501428 212.17562792 -343.94921875 217.203125 C-344.73364578 218.78810869 -345.52415161 220.37009656 -346.3203125 221.94921875 C-357.44510539 244.63364985 -363.2653336 269.95884275 -363.94921875 295.203125 C-363.98917969 296.47285156 -364.02914063 297.74257813 -364.0703125 299.05078125 C-364.70662354 329.16590868 -359.76460356 359.94051101 -345.71875 386.7421875 C-344.29118617 389.53428807 -343.04498356 392.26984691 -341.94921875 395.203125 C-342.65884766 395.87794922 -342.65884766 395.87794922 -343.3828125 396.56640625 C-349.05882818 402.08752092 -354.02635449 408.00958636 -358.94921875 414.203125 C-359.81313947 415.26486242 -360.67774181 416.32604552 -361.54296875 417.38671875 C-396.53919027 460.64011913 -415.80461052 511.74719968 -424.94921875 566.203125 C-425.13000977 567.23872559 -425.31080078 568.27432617 -425.49707031 569.34130859 C-428.31928062 586.21004672 -428.25699168 603.21017447 -428.32421875 620.265625 C-428.3362735 621.9688945 -428.3362735 621.9688945 -428.34857178 623.70657349 C-428.46489003 645.40501897 -426.78520227 666.84858256 -422.13671875 688.078125 C-421.87665039 689.28952148 -421.61658203 690.50091797 -421.34863281 691.74902344 C-410.84959359 739.48229102 -388.16307416 782.61479302 -355.26953125 818.66015625 C-353.64754223 820.43779068 -352.0392142 822.22794321 -350.44140625 824.02734375 C-346.16605419 828.81913742 -341.88734216 833.3642656 -336.96484375 837.4921875 C-335.58977887 838.65939374 -334.24656751 839.86492442 -332.93359375 841.1015625 C-273.77481522 896.74391014 -191.69906155 921.68901242 -113.94921875 937.203125 C-115.228312 941.10903574 -116.6383534 944.83056444 -118.32421875 948.578125 C-128.3073679 972.62576957 -128.44887747 999.55303253 -128.94921875 1025.203125 C-159.22911451 1039.21946317 -196.63461548 1039.3938665 -228.94921875 1033.203125 C-230.06973633 1032.99429687 -230.06973633 1032.99429687 -231.21289062 1032.78125 C-266.78201711 1025.92760921 -300.43923349 1006.72090368 -321.94921875 977.203125 C-324.74990416 973.05110887 -327.42405453 968.81916675 -330.10668945 964.59033203 C-334.82752461 957.21626268 -340.00949422 950.62372678 -345.94921875 944.203125 C-346.75746094 943.32527344 -347.56570313 942.44742188 -348.3984375 941.54296875 C-368.56791968 920.52903159 -397.59268705 905.01729269 -426.94921875 903.203125 C-436.78214037 903.21309754 -448.1623148 903.41497612 -455.94921875 910.203125 C-457.1272549 913.18286349 -457.41262962 915.08398775 -456.16796875 918.08984375 C-451.6012298 925.94278336 -445.19048982 931.41008482 -437.8215332 936.53369141 C-405.41915826 959.07596303 -385.04592581 993.14114288 -369.88671875 1028.953125 C-363.97290811 1042.87615478 -357.00761869 1054.80011257 -346.94921875 1066.203125 C-345.83546875 1067.48123047 -345.83546875 1067.48123047 -344.69921875 1068.78515625 C-342.48242168 1071.29059877 -340.22690601 1073.75300719 -337.94921875 1076.203125 C-337.29953125 1076.91855469 -336.64984375 1077.63398437 -335.98046875 1078.37109375 C-303.95185045 1112.18592346 -254.09123461 1129.78485659 -208.35107422 1131.32421875 C-184.6692495 1131.90701252 -161.4950691 1130.34094401 -138.20703125 1125.75390625 C-135.3667803 1125.27371994 -132.81871523 1125.08856335 -129.94921875 1125.203125 C-128.4090402 1128.28348211 -128.80192523 1131.5226997 -128.80395508 1134.90307617 C-128.80059647 1135.69857376 -128.79723785 1136.49407135 -128.79377747 1137.31367493 C-128.78424084 1139.95783026 -128.78232194 1142.60192226 -128.78125 1145.24609375 C-128.77803552 1147.09060187 -128.7746713 1148.93510973 -128.77116394 1150.77961731 C-128.76516328 1154.65931792 -128.76332462 1158.53899625 -128.76391602 1162.41870117 C-128.76401683 1167.35188066 -128.7504532 1172.28491359 -128.73314381 1177.21805859 C-128.72192462 1181.0368971 -128.71999995 1184.85570153 -128.72052574 1188.67455482 C-128.7193571 1190.490324 -128.71499918 1192.30609438 -128.70719337 1194.12184715 C-128.62061846 1216.37211677 -130.7003972 1236.45047086 -146.76171875 1253.515625 C-156.49200295 1262.64712248 -167.44866346 1266.62373887 -180.70605469 1266.47119141 C-186.2315472 1266.01447726 -191.18858761 1264.30567739 -196.38671875 1262.453125 C-197.54631104 1262.0519043 -198.70590332 1261.65068359 -199.90063477 1261.23730469 C-266.98975329 1237.58365743 -330.56183808 1201.80121261 -385.94921875 1157.203125 C-386.86703125 1156.46835938 -387.78484375 1155.73359375 -388.73046875 1154.9765625 C-400.29424908 1145.62350488 -411.47308997 1135.80068553 -422.36425781 1125.67480469 C-424.08377564 1124.07818524 -425.80944879 1122.48836361 -427.53515625 1120.8984375 C-449.11040347 1100.96149761 -449.11040347 1100.96149761 -458.12109375 1090.3125 C-460.11058608 1088.01693193 -462.17123385 1085.8004334 -464.24511719 1083.58129883 C-469.19288138 1078.28394771 -473.95457203 1072.90771155 -478.4921875 1067.25 C-480.34867421 1064.94783842 -482.22417499 1062.67130159 -484.125 1060.40625 C-492.85055363 1049.98467767 -501.03337057 1039.25058996 -508.94921875 1028.203125 C-509.53735352 1027.38408691 -510.12548828 1026.56504883 -510.73144531 1025.72119141 C-559.91188298 957.00019208 -596.22166513 877.85274346 -630.15234375 669.25390625 C-630.15932139 667.75859041 -630.16636236 666.26327486 -630.17346191 664.76795959 C-630.19273827 660.01717765 -630.19763713 655.26644179 -630.19921875 650.515625 C-630.19980789 649.7077076 -630.20039703 648.89979019 -630.20100403 648.06739044 C-630.21324526 624.305174 -629.90961679 600.81364215 -626.94921875 577.203125 C-626.65621435 574.66016036 -626.36324584 572.11719158 -626.0703125 569.57421875 C-617.91204727 501.80791308 -598.78076147 436.04117512 -569.94921875 374.203125 C-569.50497559 373.24229004 -569.06073242 372.28145508 -568.60302734 371.29150391 C-561.88678501 356.81068638 -554.62550594 342.77904256 -546.57714844 328.99414062 C-544.97235468 326.24279057 -543.38563226 323.48162421 -541.80078125 320.71875 C-522.38613135 287.11577778 -499.43545384 255.45404385 -473.94921875 226.203125 C-473.29050781 225.44257813 -472.63179687 224.68203125 -471.953125 223.8984375 C-468.1379271 219.51051937 -464.26059468 215.1787191 -460.359375 210.8671875 C-458.77702197 209.11813602 -457.20126199 207.36309262 -455.6328125 205.6015625 C-449.5403721 198.83218427 -443.19170147 192.34000169 -436.76171875 185.890625 C-435.91826904 185.04258301 -435.07481934 184.19454102 -434.20581055 183.32080078 C-429.85559676 178.98126289 -425.43862239 174.79226384 -420.77856445 170.78735352 C-417.99405934 168.37594905 -415.32309548 165.84753021 -412.63671875 163.328125 C-406.93437003 158.02938034 -401.02207494 153.07414464 -394.94921875 148.203125 C-393.75648533 147.2203585 -392.56516474 146.23587569 -391.375 145.25 C-381.18388546 136.83377874 -370.67690416 128.92106896 -359.94921875 121.203125 C-359.15531738 120.62949219 -358.36141602 120.05585938 -357.54345703 119.46484375 C-338.32049785 105.62087559 -318.23114925 93.17832746 -297.54248047 81.65039062 C-294.93355887 80.19438542 -292.33413977 78.72227865 -289.734375 77.25 C-275.17978513 69.08261841 -260.18623176 61.99969123 -244.94921875 55.203125 C-243.89283203 54.7302002 -242.83644531 54.25727539 -241.74804688 53.77001953 C-166.55999712 20.36233244 -82.4155652 0.24032326 0 0 Z " fill="#000000" transform="translate(729.94921875,99.796875)"/>
</svg>
